<?xml version="1.0" encoding="UTF-8" standalone="no"?>
<!-- Generated by SVGo -->

<svg
   xmlns:dc="http://purl.org/dc/elements/1.1/"
   xmlns:cc="http://creativecommons.org/ns#"
   xmlns:rdf="http://www.w3.org/1999/02/22-rdf-syntax-ns#"
   xmlns:svg="http://www.w3.org/2000/svg"
   xmlns="http://www.w3.org/2000/svg"
   xmlns:sodipodi="http://sodipodi.sourceforge.net/DTD/sodipodi-0.dtd"
   xmlns:inkscape="http://www.inkscape.org/namespaces/inkscape"
   width="168.876mm"
   height="102.201mm"
   viewBox="0.000 0.000 168.876 102.201"
   version="1.1"
   id="svg138"
   sodipodi:docname="layer_all.svg"
   inkscape:version="0.92.4 (5da689c313, 2019-01-14)">
  <metadata
     id="metadata144">
    <rdf:RDF>
      <cc:Work
         rdf:about="">
        <dc:format>image/svg+xml</dc:format>
        <dc:type
           rdf:resource="http://purl.org/dc/dcmitype/StillImage" />
        <dc:title />
      </cc:Work>
    </rdf:RDF>
  </metadata>
  <defs
     id="defs142" />
  <sodipodi:namedview
     pagecolor="#ffffff"
     bordercolor="#666666"
     borderopacity="1"
     objecttolerance="10"
     gridtolerance="10"
     guidetolerance="10"
     inkscape:pageopacity="0"
     inkscape:pageshadow="2"
     inkscape:window-width="3440"
     inkscape:window-height="1417"
     id="namedview140"
     showgrid="true"
     inkscape:snap-bbox="false"
     inkscape:object-paths="false"
     inkscape:zoom="1.4142136"
     inkscape:cx="158.04246"
     inkscape:cy="191.58106"
     inkscape:window-x="1072"
     inkscape:window-y="-8"
     inkscape:window-maximized="1"
     inkscape:current-layer="svg138"
     showguides="false">
    <inkscape:grid
       type="xygrid"
       id="grid146" />
    <sodipodi:guide
       position="167.814,94.701"
       inkscape:color="rgb(167,0,255)"
       inkscape:label="Measure"
       orientation="-1,2.51523e-14"
       id="guide215"
       inkscape:locked="false" />
    <sodipodi:guide
       position="167.814,94.701"
       inkscape:color="rgb(167,0,255)"
       inkscape:label=""
       orientation="-0,1"
       id="guide217"
       inkscape:locked="false" />
    <sodipodi:guide
       position="167.814,94.701"
       inkscape:color="rgb(167,0,255)"
       inkscape:label="Start"
       orientation="-1,6.12303e-17"
       id="guide219"
       inkscape:locked="false" />
    <sodipodi:guide
       position="167.814,97.1021"
       inkscape:color="rgb(167,0,255)"
       inkscape:label="End"
       orientation="-0,1"
       id="guide221"
       inkscape:locked="false" />
    <sodipodi:guide
       position="167.814,97.1021"
       inkscape:color="rgb(167,0,255)"
       inkscape:label=""
       orientation="-1,6.12303e-17"
       id="guide223"
       inkscape:locked="false" />
    <sodipodi:guide
       position="167.814,94.701"
       inkscape:color="rgb(167,0,255)"
       inkscape:label="Crossing 1"
       orientation="-2.49915e-14,-1"
       id="guide225"
       inkscape:locked="false" />
    <sodipodi:guide
       position="167.814,94.701"
       inkscape:color="rgb(167,0,255)"
       inkscape:label="Crossing 2"
       orientation="-2.49915e-14,-1"
       id="guide227"
       inkscape:locked="false" />
  </sodipodi:namedview>
  <polygon
     points="158.449,93.664 158.662,94.082 158.994,94.414 159.412,94.627 159.876,94.701 160.339,94.627 160.757,94.414 161.089,94.082 161.302,93.664 161.376,93.201 161.302,92.737 161.089,92.319 160.757,91.987 160.339,91.774 159.876,91.701 159.412,91.774 158.994,91.987 158.662,92.319 158.449,92.737 158.375,93.201 "
     style="fill:none;stroke:#000000;stroke-width:0.05mm"
     id="polygon80"
     transform="translate(3.7041666,-47.625024)" />
  <polygon
     points="84.438,91.701 83.974,91.774 83.556,91.987 83.224,92.319 83.011,92.737 82.938,93.201 83.011,93.664 83.224,94.082 83.556,94.414 83.974,94.627 84.438,94.701 84.901,94.627 85.319,94.414 85.651,94.082 85.864,93.664 85.938,93.201 85.864,92.737 85.651,92.319 85.319,91.987 84.901,91.774 "
     style="fill:none;stroke:#000000;stroke-width:0.05mm"
     id="polygon82"
     transform="translate(-4.2333335,-1.5875)" />
  <polygon
     points="9,91.701 8.536,91.774 8.118,91.987 7.786,92.319 7.573,92.737 7.499,93.201 7.573,93.664 7.786,94.082 8.118,94.414 8.536,94.627 9,94.701 9.463,94.627 9.881,94.414 10.213,94.082 10.426,93.664 10.5,93.201 10.426,92.737 10.213,92.319 9.881,91.987 9.463,91.774 "
     style="fill:none;stroke:#000000;stroke-width:0.05mm"
     id="polygon84"
     transform="translate(-4.2333335,-1.5875)" />
  <polygon
     points="85.175,87.425 88.475,87.425 88.475,86.445 90.2,86.445 90.2,81.975 91.725,81.975 91.725,82.575 90.925,82.575 90.925,85.675 91.725,85.675 91.725,86.675 105.725,86.675 105.725,85.675 106.525,85.675 106.525,82.575 105.725,82.575 105.725,81.975 107.25,81.975 107.25,86.445 108.975,86.445 108.975,87.425 112.275,87.425 112.275,86.445 114,86.445 114,80.175 114.825,80.175 114.825,77.375 114,77.375 114,74.145 112.275,74.145 112.275,73.225 108.975,73.225 108.975,74.145 107.25,74.145 107.25,77.375 105.725,77.375 105.725,76.774 106.525,76.774 106.525,73.675 105.725,73.675 105.725,72.675 91.725,72.675 91.725,73.675 90.925,73.675 90.925,76.774 91.725,76.774 91.725,77.375 90.2,77.375 90.2,74.145 88.475,74.145 88.475,73.225 85.175,73.225 85.175,74.145 83.45,74.145 83.45,77.375 82.625,77.375 82.625,80.175 83.45,80.175 83.45,86.445 85.175,86.445 "
     style="fill:none;stroke:#000000;stroke-width:0.05mm"
     id="polygon86"
     transform="translate(-4.2333335,-1.5875)" />
  <polygon
     points="34.287,72.675 20.287,72.675 20.287,73.675 19.487,73.675 19.487,76.774 20.287,76.774 20.287,82.575 19.487,82.575 19.487,85.675 20.287,85.675 20.287,86.675 34.287,86.675 34.287,85.675 35.087,85.675 35.087,82.575 34.287,82.575 34.287,76.774 35.087,76.774 35.087,73.675 34.287,73.675 "
     style="fill:none;stroke:#000000;stroke-width:0.05mm"
     id="polygon88"
     transform="translate(-4.2333335,-1.5875)" />
  <polygon
     points="58.1,72.675 44.1,72.675 44.1,73.675 43.3,73.675 43.3,76.774 44.1,76.774 44.1,82.575 43.3,82.575 43.3,85.675 44.1,85.675 44.1,86.675 58.1,86.675 58.1,85.675 58.9,85.675 58.9,82.575 58.1,82.575 58.1,76.774 58.9,76.774 58.9,73.675 58.1,73.675 "
     style="fill:none;stroke:#000000;stroke-width:0.05mm"
     id="polygon90"
     transform="translate(-4.2333335,-1.5875)" />
  <polygon
     points="77.15,72.675 63.15,72.675 63.15,73.675 62.35,73.675 62.35,76.774 63.15,76.774 63.15,82.575 62.35,82.575 62.35,85.675 63.15,85.675 63.15,86.675 77.15,86.675 77.15,85.675 77.95,85.675 77.95,82.575 77.15,82.575 77.15,76.774 77.95,76.774 77.95,73.675 77.15,73.675 "
     style="fill:none;stroke:#000000;stroke-width:0.05mm"
     id="polygon92"
     transform="translate(-4.2333335,-1.5875)" />
  <polygon
     points="34.287,53.625 20.287,53.625 20.287,54.625 19.487,54.625 19.487,57.725 20.287,57.725 20.287,63.525 19.487,63.525 19.487,66.625 20.287,66.625 20.287,67.625 34.287,67.625 34.287,66.625 35.087,66.625 35.087,63.525 34.287,63.525 34.287,57.725 35.087,57.725 35.087,54.625 34.287,54.625 "
     style="fill:none;stroke:#000000;stroke-width:0.05mm"
     id="polygon94"
     transform="translate(-4.2333335,-1.5875)" />
  <polygon
     points="58.1,53.625 44.1,53.625 44.1,54.625 43.3,54.625 43.3,57.725 44.1,57.725 44.1,63.525 43.3,63.525 43.3,66.625 44.1,66.625 44.1,67.625 58.1,67.625 58.1,66.625 58.9,66.625 58.9,63.525 58.1,63.525 58.1,57.725 58.9,57.725 58.9,54.625 58.1,54.625 "
     style="fill:none;stroke:#000000;stroke-width:0.05mm"
     id="polygon96"
     transform="translate(-4.2333335,-1.5875)" />
  <polygon
     points="77.15,53.625 63.15,53.625 63.15,54.625 62.35,54.625 62.35,57.725 63.15,57.725 63.15,63.525 62.35,63.525 62.35,66.625 63.15,66.625 63.15,67.625 77.15,67.625 77.15,66.625 77.95,66.625 77.95,63.525 77.15,63.525 77.15,57.725 77.95,57.725 77.95,54.625 77.15,54.625 "
     style="fill:none;stroke:#000000;stroke-width:0.05mm"
     id="polygon98"
     transform="translate(-4.2333335,-1.5875)" />
  <polygon
     points="96.2,53.625 82.2,53.625 82.2,54.625 81.4,54.625 81.4,57.725 82.2,57.725 82.2,63.525 81.4,63.525 81.4,66.625 82.2,66.625 82.2,67.625 96.2,67.625 96.2,66.625 97,66.625 97,63.525 96.2,63.525 96.2,57.725 97,57.725 97,54.625 96.2,54.625 "
     style="fill:none;stroke:#000000;stroke-width:0.05mm"
     id="polygon100"
     transform="translate(-4.2333335,-1.5875)" />
  <polygon
     points="115.25,53.625 101.25,53.625 101.25,54.625 100.45,54.625 100.45,57.725 101.25,57.725 101.25,63.525 100.45,63.525 100.45,66.625 101.25,66.625 101.25,67.625 115.25,67.625 115.25,66.625 116.05,66.625 116.05,63.525 115.25,63.525 115.25,57.725 116.05,57.725 116.05,54.625 115.25,54.625 "
     style="fill:none;stroke:#000000;stroke-width:0.05mm"
     id="polygon102"
     transform="translate(-4.2333335,-1.5875)" />
  <polygon
     points="134.3,53.625 120.3,53.625 120.3,54.625 119.5,54.625 119.5,57.725 120.3,57.725 120.3,63.525 119.5,63.525 119.5,66.625 120.3,66.625 120.3,67.625 134.3,67.625 134.3,66.625 135.1,66.625 135.1,63.525 134.3,63.525 134.3,57.725 135.1,57.725 135.1,54.625 134.3,54.625 "
     style="fill:none;stroke:#000000;stroke-width:0.05mm"
     id="polygon104"
     transform="translate(-4.2333335,-1.5875)" />
  <polygon
     points="34.287,34.574 20.287,34.574 20.287,35.574 19.487,35.574 19.487,38.675 20.287,38.675 20.287,44.474 19.487,44.474 19.487,47.574 20.287,47.574 20.287,48.574 34.287,48.574 34.287,47.574 35.087,47.574 35.087,44.474 34.287,44.474 34.287,38.675 35.087,38.675 35.087,35.574 34.287,35.574 "
     style="fill:none;stroke:#000000;stroke-width:0.05mm"
     id="polygon106"
     transform="translate(-4.2333335,-1.5875)" />
  <polygon
     points="58.1,34.574 44.1,34.574 44.1,35.574 43.3,35.574 43.3,38.675 44.1,38.675 44.1,44.474 43.3,44.474 43.3,47.574 44.1,47.574 44.1,48.574 58.1,48.574 58.1,47.574 58.9,47.574 58.9,44.474 58.1,44.474 58.1,38.675 58.9,38.675 58.9,35.574 58.1,35.574 "
     style="fill:none;stroke:#000000;stroke-width:0.05mm"
     id="polygon108"
     transform="translate(-4.2333335,-1.5875)" />
  <polygon
     points="77.15,34.574 63.15,34.574 63.15,35.574 62.35,35.574 62.35,38.675 63.15,38.675 63.15,44.474 62.35,44.474 62.35,47.574 63.15,47.574 63.15,48.574 77.15,48.574 77.15,47.574 77.95,47.574 77.95,44.474 77.15,44.474 77.15,38.675 77.95,38.675 77.95,35.574 77.15,35.574 "
     style="fill:none;stroke:#000000;stroke-width:0.05mm"
     id="polygon110"
     transform="translate(-4.2333335,-1.5875)" />
  <polygon
     points="96.2,34.574 82.2,34.574 82.2,35.574 81.4,35.574 81.4,38.675 82.2,38.675 82.2,44.474 81.4,44.474 81.4,47.574 82.2,47.574 82.2,48.574 96.2,48.574 96.2,47.574 97,47.574 97,44.474 96.2,44.474 96.2,38.675 97,38.675 97,35.574 96.2,35.574 "
     style="fill:none;stroke:#000000;stroke-width:0.05mm"
     id="polygon112"
     transform="translate(-4.2333335,-1.5875)" />
  <polygon
     points="115.25,34.574 101.25,34.574 101.25,35.574 100.45,35.574 100.45,38.675 101.25,38.675 101.25,44.474 100.45,44.474 100.45,47.574 101.25,47.574 101.25,48.574 115.25,48.574 115.25,47.574 116.05,47.574 116.05,44.474 115.25,44.474 115.25,38.675 116.05,38.675 116.05,35.574 115.25,35.574 "
     style="fill:none;stroke:#000000;stroke-width:0.05mm"
     id="polygon114"
     transform="translate(-4.2333335,-1.5875)" />
  <polygon
     points="134.3,34.574 120.3,34.574 120.3,35.574 119.5,35.574 119.5,38.675 120.3,38.675 120.3,44.474 119.5,44.474 119.5,47.574 120.3,47.574 120.3,48.574 134.3,48.574 134.3,47.574 135.1,47.574 135.1,44.474 134.3,44.474 134.3,38.675 135.1,38.675 135.1,35.574 134.3,35.574 "
     style="fill:none;stroke:#000000;stroke-width:0.05mm"
     id="polygon116"
     transform="translate(-4.2333335,-1.5875)" />
  <polygon
     points="143.45,39.05 144.049,39.05 144.049,40.574 139.579,40.574 139.579,42.3 138.6,42.3 138.6,45.599 139.579,45.599 139.579,47.324 145.85,47.324 145.85,48.15 148.65,48.15 148.65,47.324 151.88,47.324 151.88,45.599 152.799,45.599 152.799,42.3 151.88,42.3 151.88,40.574 148.65,40.574 148.65,39.05 149.25,39.05 149.25,39.849 152.35,39.849 152.35,39.05 153.35,39.05 153.35,25.049 152.35,25.049 152.35,24.249 149.25,24.249 149.25,25.049 148.65,25.049 148.65,23.525 151.88,23.525 151.88,21.799 152.799,21.799 152.799,18.499 151.88,18.499 151.88,16.775 148.65,16.775 148.65,15.949 145.85,15.949 145.85,16.775 139.579,16.775 139.579,18.499 138.6,18.499 138.6,21.799 139.579,21.799 139.579,23.525 144.049,23.525 144.049,25.049 143.45,25.049 143.45,24.249 140.35,24.249 140.35,25.049 139.35,25.049 139.35,39.05 140.35,39.05 140.35,39.849 143.45,39.849 "
     style="fill:none;stroke:#000000;stroke-width:0.05mm"
     id="polygon118"
     transform="translate(-4.2333335,-1.5875)" />
  <polygon
     points="34.287,15.524 20.287,15.524 20.287,16.525 19.487,16.525 19.487,19.625 20.287,19.625 20.287,25.424 19.487,25.424 19.487,28.525 20.287,28.525 20.287,29.525 34.287,29.525 34.287,28.525 35.087,28.525 35.087,25.424 34.287,25.424 34.287,19.625 35.087,19.625 35.087,16.525 34.287,16.525 "
     style="fill:none;stroke:#000000;stroke-width:0.05mm"
     id="polygon120"
     transform="translate(-4.2333335,-1.5875)" />
  <polygon
     points="58.1,15.524 44.1,15.524 44.1,16.525 43.3,16.525 43.3,19.625 44.1,19.625 44.1,25.424 43.3,25.424 43.3,28.525 44.1,28.525 44.1,29.525 58.1,29.525 58.1,28.525 58.9,28.525 58.9,25.424 58.1,25.424 58.1,19.625 58.9,19.625 58.9,16.525 58.1,16.525 "
     style="fill:none;stroke:#000000;stroke-width:0.05mm"
     id="polygon122"
     transform="translate(-4.2333335,-1.5875)" />
  <polygon
     points="77.15,15.524 63.15,15.524 63.15,16.525 62.35,16.525 62.35,19.625 63.15,19.625 63.15,25.424 62.35,25.424 62.35,28.525 63.15,28.525 63.15,29.525 77.15,29.525 77.15,28.525 77.95,28.525 77.95,25.424 77.15,25.424 77.15,19.625 77.95,19.625 77.95,16.525 77.15,16.525 "
     style="fill:none;stroke:#000000;stroke-width:0.05mm"
     id="polygon124"
     transform="translate(-4.2333335,-1.5875)" />
  <polygon
     points="96.2,15.524 82.2,15.524 82.2,16.525 81.4,16.525 81.4,19.625 82.2,19.625 82.2,25.424 81.4,25.424 81.4,28.525 82.2,28.525 82.2,29.525 96.2,29.525 96.2,28.525 97,28.525 97,25.424 96.2,25.424 96.2,19.625 97,19.625 97,16.525 96.2,16.525 "
     style="fill:none;stroke:#000000;stroke-width:0.05mm"
     id="polygon126"
     transform="translate(-4.2333335,-1.5875)" />
  <polygon
     points="115.25,15.524 101.25,15.524 101.25,16.525 100.45,16.525 100.45,19.625 101.25,19.625 101.25,25.424 100.45,25.424 100.45,28.525 101.25,28.525 101.25,29.525 115.25,29.525 115.25,28.525 116.05,28.525 116.05,25.424 115.25,25.424 115.25,19.625 116.05,19.625 116.05,16.525 115.25,16.525 "
     style="fill:none;stroke:#000000;stroke-width:0.05mm"
     id="polygon128"
     transform="translate(-4.2333335,-1.5875)" />
  <polygon
     points="134.3,15.524 120.3,15.524 120.3,16.525 119.5,16.525 119.5,19.625 120.3,19.625 120.3,25.424 119.5,25.424 119.5,28.525 120.3,28.525 120.3,29.525 134.3,29.525 134.3,28.525 135.1,28.525 135.1,25.424 134.3,25.424 134.3,19.625 135.1,19.625 135.1,16.525 134.3,16.525 "
     style="fill:none;stroke:#000000;stroke-width:0.05mm"
     id="polygon130"
     transform="translate(-4.2333335,-1.5875)" />
  <polygon
     points="84.438,7.5 83.974,7.573 83.556,7.786 83.224,8.118 83.011,8.536 82.938,9 83.011,9.463 83.224,9.881 83.556,10.213 83.974,10.426 84.438,10.5 84.901,10.426 85.319,10.213 85.651,9.881 85.864,9.463 85.938,9 85.864,8.536 85.651,8.118 85.319,7.786 84.901,7.573 "
     style="fill:none;stroke:#000000;stroke-width:0.05mm"
     id="polygon132"
     transform="translate(-4.2333335,-1.5875)" />
  <polygon
     points="158.662,8.118 158.449,8.536 158.375,9 158.449,9.463 158.662,9.881 158.994,10.213 159.412,10.426 159.876,10.5 160.339,10.426 160.757,10.213 161.089,9.881 161.302,9.463 161.376,9 161.302,8.536 161.089,8.118 160.757,7.786 160.339,7.573 159.876,7.5 159.412,7.573 158.994,7.786 "
     style="fill:none;stroke:#000000;stroke-width:0.05mm"
     id="polygon134"
     transform="translate(3.7041668,-1.5875)" />
  <polygon
     points="9,7.5 8.536,7.573 8.118,7.786 7.786,8.118 7.573,8.536 7.499,9 7.573,9.463 7.786,9.881 8.118,10.213 8.536,10.426 9,10.5 9.463,10.426 9.881,10.213 10.213,9.881 10.426,9.463 10.5,9 10.426,8.536 10.213,8.118 9.881,7.786 9.463,7.573 "
     style="fill:none;stroke:#000000;stroke-width:0.05mm"
     id="polygon136"
     transform="translate(-4.2333335,-1.5875)" />
  <path
     style="fill:none;stroke:#000000;stroke-width:0.26458332px;stroke-linecap:butt;stroke-linejoin:miter;stroke-opacity:1"
     d="M 0.76666645,3.4125084 V 95.61351 l 118.35797355,-0.0271 48.477,-48.355916 0.0403,-43.7190812 z"
     id="path148-4"
     inkscape:connector-curvature="0"
     sodipodi:nodetypes="cccccc" />
  <text
     xml:space="preserve"
     style="font-style:normal;font-weight:normal;font-size:10.58333302px;line-height:1.25;font-family:sans-serif;letter-spacing:0px;word-spacing:0px;fill:#000000;fill-opacity:1;stroke:none;stroke-width:0.26458332"
     x="4.2829428"
     y="89.161995"
     id="text231"><tspan
       sodipodi:role="line"
       id="tspan229"
       x="4.2829428"
       y="98.81749"
       style="stroke-width:0.26458332" /></text>
  <path
     style="fill:none;stroke:#000000;stroke-width:0.26458332px;stroke-linecap:butt;stroke-linejoin:miter;stroke-opacity:1"
     d="m 8.7666699,11.412497 v 76.200997 l 107.3579701,-0.027 35.477,-35.39175 0.04,-40.683249 z"
     id="path148-4-8-7"
     inkscape:connector-curvature="0"
     sodipodi:nodetypes="cccccc" />
  <polygon
     points="117.776,89.201 117.776,70.151 136.826,70.151 136.826,51.101 155.876,51.101 155.876,12.998 12.999,12.998 12.999,89.201 "
     style="fill:none;stroke:#000000;stroke-width:0.05mm"
     id="polygon271"
     transform="translate(-4.2323301,-1.585503)" />
</svg>
