<?xml version="1.0" encoding="UTF-8" standalone="no"?>
<!-- Generated by SVGo -->

<svg
   xmlns:dc="http://purl.org/dc/elements/1.1/"
   xmlns:cc="http://creativecommons.org/ns#"
   xmlns:rdf="http://www.w3.org/1999/02/22-rdf-syntax-ns#"
   xmlns:svg="http://www.w3.org/2000/svg"
   xmlns="http://www.w3.org/2000/svg"
   xmlns:sodipodi="http://sodipodi.sourceforge.net/DTD/sodipodi-0.dtd"
   xmlns:inkscape="http://www.inkscape.org/namespaces/inkscape"
   width="168.876mm"
   height="102.201mm"
   viewBox="0.000 0.000 168.876 102.201"
   version="1.1"
   id="svg138"
   sodipodi:docname="layer_wall.svg"
   inkscape:version="0.92.4 (5da689c313, 2019-01-14)">
  <metadata
     id="metadata144">
    <rdf:RDF>
      <cc:Work
         rdf:about="">
        <dc:format>image/svg+xml</dc:format>
        <dc:type
           rdf:resource="http://purl.org/dc/dcmitype/StillImage" />
        <dc:title></dc:title>
      </cc:Work>
    </rdf:RDF>
  </metadata>
  <defs
     id="defs142" />
  <sodipodi:namedview
     pagecolor="#ffffff"
     bordercolor="#666666"
     borderopacity="1"
     objecttolerance="10"
     gridtolerance="10"
     guidetolerance="10"
     inkscape:pageopacity="0"
     inkscape:pageshadow="2"
     inkscape:window-width="3440"
     inkscape:window-height="1417"
     id="namedview140"
     showgrid="true"
     inkscape:snap-bbox="false"
     inkscape:object-paths="false"
     inkscape:zoom="2"
     inkscape:cx="315.41147"
     inkscape:cy="244.66739"
     inkscape:window-x="1072"
     inkscape:window-y="-8"
     inkscape:window-maximized="1"
     inkscape:current-layer="svg138"
     showguides="false">
    <inkscape:grid
       type="xygrid"
       id="grid146" />
    <sodipodi:guide
       position="167.814,94.701"
       inkscape:color="rgb(167,0,255)"
       inkscape:label="Measure"
       orientation="-1,2.51523e-14"
       id="guide215"
       inkscape:locked="false" />
    <sodipodi:guide
       position="167.814,94.701"
       inkscape:color="rgb(167,0,255)"
       inkscape:label=""
       orientation="-0,1"
       id="guide217"
       inkscape:locked="false" />
    <sodipodi:guide
       position="167.814,94.701"
       inkscape:color="rgb(167,0,255)"
       inkscape:label="Start"
       orientation="-1,6.12303e-17"
       id="guide219"
       inkscape:locked="false" />
    <sodipodi:guide
       position="167.814,97.1021"
       inkscape:color="rgb(167,0,255)"
       inkscape:label="End"
       orientation="-0,1"
       id="guide221"
       inkscape:locked="false" />
    <sodipodi:guide
       position="167.814,97.1021"
       inkscape:color="rgb(167,0,255)"
       inkscape:label=""
       orientation="-1,6.12303e-17"
       id="guide223"
       inkscape:locked="false" />
    <sodipodi:guide
       position="167.814,94.701"
       inkscape:color="rgb(167,0,255)"
       inkscape:label="Crossing 1"
       orientation="-2.49915e-14,-1"
       id="guide225"
       inkscape:locked="false" />
    <sodipodi:guide
       position="167.814,94.701"
       inkscape:color="rgb(167,0,255)"
       inkscape:label="Crossing 2"
       orientation="-2.49915e-14,-1"
       id="guide227"
       inkscape:locked="false" />
  </sodipodi:namedview>
  <polygon
     points="158.449,93.664 158.662,94.082 158.994,94.414 159.412,94.627 159.876,94.701 160.339,94.627 160.757,94.414 161.089,94.082 161.302,93.664 161.376,93.201 161.302,92.737 161.089,92.319 160.757,91.987 160.339,91.774 159.876,91.701 159.412,91.774 158.994,91.987 158.662,92.319 158.449,92.737 158.375,93.201 "
     style="fill:none;stroke:#000000;stroke-width:0.05mm"
     id="polygon80"
     transform="translate(3.7041666,-47.625024)" />
  <polygon
     points="84.438,91.701 83.974,91.774 83.556,91.987 83.224,92.319 83.011,92.737 82.938,93.201 83.011,93.664 83.224,94.082 83.556,94.414 83.974,94.627 84.438,94.701 84.901,94.627 85.319,94.414 85.651,94.082 85.864,93.664 85.938,93.201 85.864,92.737 85.651,92.319 85.319,91.987 84.901,91.774 "
     style="fill:none;stroke:#000000;stroke-width:0.05mm"
     id="polygon82"
     transform="translate(-4.2333335,-1.5875)" />
  <polygon
     points="9,91.701 8.536,91.774 8.118,91.987 7.786,92.319 7.573,92.737 7.499,93.201 7.573,93.664 7.786,94.082 8.118,94.414 8.536,94.627 9,94.701 9.463,94.627 9.881,94.414 10.213,94.082 10.426,93.664 10.5,93.201 10.426,92.737 10.213,92.319 9.881,91.987 9.463,91.774 "
     style="fill:none;stroke:#000000;stroke-width:0.05mm"
     id="polygon84"
     transform="translate(-4.2333335,-1.5875)" />
  <polygon
     points="84.438,7.5 83.974,7.573 83.556,7.786 83.224,8.118 83.011,8.536 82.938,9 83.011,9.463 83.224,9.881 83.556,10.213 83.974,10.426 84.438,10.5 84.901,10.426 85.319,10.213 85.651,9.881 85.864,9.463 85.938,9 85.864,8.536 85.651,8.118 85.319,7.786 84.901,7.573 "
     style="fill:none;stroke:#000000;stroke-width:0.05mm"
     id="polygon132"
     transform="translate(-4.2333335,-1.5875)" />
  <polygon
     points="158.662,8.118 158.449,8.536 158.375,9 158.449,9.463 158.662,9.881 158.994,10.213 159.412,10.426 159.876,10.5 160.339,10.426 160.757,10.213 161.089,9.881 161.302,9.463 161.376,9 161.302,8.536 161.089,8.118 160.757,7.786 160.339,7.573 159.876,7.5 159.412,7.573 158.994,7.786 "
     style="fill:none;stroke:#000000;stroke-width:0.05mm"
     id="polygon134"
     transform="translate(3.7041668,-1.5875)" />
  <polygon
     points="9,7.5 8.536,7.573 8.118,7.786 7.786,8.118 7.573,8.536 7.499,9 7.573,9.463 7.786,9.881 8.118,10.213 8.536,10.426 9,10.5 9.463,10.426 9.881,10.213 10.213,9.881 10.426,9.463 10.5,9 10.426,8.536 10.213,8.118 9.881,7.786 9.463,7.573 "
     style="fill:none;stroke:#000000;stroke-width:0.05mm"
     id="polygon136"
     transform="translate(-4.2333335,-1.5875)" />
  <path
     style="fill:none;stroke:#000000;stroke-width:0.26458332px;stroke-linecap:butt;stroke-linejoin:miter;stroke-opacity:1"
     d="M 0.76666645,3.4125084 V 95.61351 l 118.35797355,-0.0271 48.477,-48.355916 0.0403,-43.7190812 z"
     id="path148-4"
     inkscape:connector-curvature="0"
     sodipodi:nodetypes="cccccc" />
  <text
     xml:space="preserve"
     style="font-style:normal;font-weight:normal;font-size:10.58333302px;line-height:1.25;font-family:sans-serif;letter-spacing:0px;word-spacing:0px;fill:#000000;fill-opacity:1;stroke:none;stroke-width:0.26458332"
     x="4.2829428"
     y="89.161995"
     id="text231"><tspan
       sodipodi:role="line"
       id="tspan229"
       x="4.2829428"
       y="98.81749"
       style="stroke-width:0.26458332" /></text>
  <path
     style="fill:none;stroke:#000000;stroke-width:0.26458332px;stroke-linecap:butt;stroke-linejoin:miter;stroke-opacity:1"
     d="m 8.7666699,11.412497 v 76.200997 l 107.3579701,-0.027 35.477,-35.39175 0.04,-40.683249 z"
     id="path148-4-8-7"
     inkscape:connector-curvature="0"
     sodipodi:nodetypes="cccccc" />
</svg>
